<svg xmlns="http://www.w3.org/2000/svg" width="20" height="20" viewBox="0 0 20 20"><path fill="#fff" d="M0 0h20v20H0V0z"/><path d="M 9.992188 1.667969 C 5.390625 1.667969 1.660156 5.398438 1.660156 10 C 1.660156 14.601562 5.390625 18.332031 9.992188 18.332031 C 14.589844 18.332031 18.324219 14.601562 18.324219 10 C 18.324219 5.398438 14.589844 1.667969 9.992188 1.667969 Z M 13 6.949219 C 13.890625 6.949219 14.609375 7.667969 14.609375 8.558594 C 14.609375 9.449219 13.890625 10.167969 13 10.167969 C 12.109375 10.167969 11.390625 9.449219 11.390625 8.558594 C 11.382812 7.667969 12.109375 6.949219 13 6.949219 Z M 8 5.632812 C 9.082031 5.632812 9.964844 6.515625 9.964844 7.601562 C 9.964844 8.683594 9.082031 9.566406 8 9.566406 C 6.917969 9.566406 6.035156 8.683594 6.035156 7.601562 C 6.035156 6.507812 6.910156 5.632812 8 5.632812 Z M 8 13.242188 L 8 16.367188 C 6 15.742188 4.417969 14.199219 3.714844 12.234375 C 4.589844 11.300781 6.773438 10.824219 8 10.824219 C 8.441406 10.824219 9 10.890625 9.582031 11.007812 C 8.214844 11.734375 8 12.691406 8 13.242188 Z M 9.992188 16.667969 C 9.765625 16.667969 9.550781 16.660156 9.332031 16.632812 L 9.332031 13.242188 C 9.332031 12.058594 11.785156 11.464844 13 11.464844 C 13.890625 11.464844 15.433594 11.792969 16.199219 12.425781 C 15.226562 14.898438 12.816406 16.667969 9.992188 16.667969 Z M 9.992188 16.667969 "/></svg>
