<svg xmlns="http://www.w3.org/2000/svg" width="20" height="20" viewBox="0 0 20 20"><path fill="#fff" d="M0 0h20v20H0V0z"/><path d="M 8.410156 12.992188 L 9.582031 14.167969 L 13.75 10 L 9.582031 5.832031 L 8.410156 7.007812 L 10.558594 9.167969 L 2.5 9.167969 L 2.5 10.832031 L 10.558594 10.832031 Z M 15.832031 2.5 L 4.167969 2.5 C 3.242188 2.5 2.5 3.25 2.5 4.167969 L 2.5 7.5 L 4.167969 7.5 L 4.167969 4.167969 L 15.832031 4.167969 L 15.832031 15.832031 L 4.167969 15.832031 L 4.167969 12.5 L 2.5 12.5 L 2.5 15.832031 C 2.5 16.75 3.242188 17.5 4.167969 17.5 L 15.832031 17.5 C 16.75 17.5 17.5 16.75 17.5 15.832031 L 17.5 4.167969 C 17.5 3.25 16.75 2.5 15.832031 2.5 Z M 15.832031 2.5 "/></svg>
